<svg width="323" height="93" viewBox="0 0 323 93" fill="none" xmlns="http://www.w3.org/2000/svg">
<path d="M142.385 56.1767V35.1636C142.385 28.8933 137.609 23.7973 131.733 23.7973H97.8709L107.992 12.9972L96.3379 0.561279L74.582 23.7763H74.5623V41.3711H125.837V49.9692H65.9149V44.328C65.9149 38.0576 61.1394 32.9617 55.2631 32.9617H41.1914V0.603215H24.7025V74.3586H16.6447V41.3082H0.155762V80.671C0.155762 86.9413 4.93155 92.0373 10.8078 92.0373H30.5C36.3959 92.0373 41.1521 86.9413 41.1521 80.671V50.5774H49.6618V56.1977C49.6618 62.468 54.4376 67.564 60.3138 67.564H131.713C137.609 67.564 142.366 62.468 142.366 56.1977L142.385 56.1767Z" fill="white"/>
<path d="M74.0121 74.8412H47.3036V91.702H74.0121V74.8412Z" fill="white"/>
<path d="M319.794 20.7145L313.112 13.8779L301.182 1.14844L289.646 13.4585L299.197 23.6504H265.59C259.714 23.6504 254.939 28.7464 254.939 35.0168V50.074H246.92V32.9826C246.92 28.2431 243.481 24.3635 239.118 24.0279C238.685 23.986 217.381 23.944 203.467 23.944L203.526 50.2209H195.39V23.944H186.074C186.074 23.944 185.956 23.944 185.878 23.944H163.847C157.007 23.944 151.485 29.8579 151.485 37.1349V67.543H179.078V92.5825H195.39V67.3123L249.279 67.3752H254.939H312.011C317.887 67.3752 322.663 62.2792 322.663 56.0089V27.8656C322.663 25.1813 321.622 22.5809 319.814 20.7355L319.794 20.7145ZM178.881 50.3467H167.758V41.371H178.881V50.3467ZM230.608 50.3467H219.484V41.371H230.608V50.3467ZM282.237 50.2838H271.113V41.3081H282.237V50.2838ZM306.194 50.2838H295.07V41.3081H306.194V50.2838Z" fill="white"/>
</svg>
