<svg width="266" height="225" viewBox="0 0 266 225" fill="none" xmlns="http://www.w3.org/2000/svg">
<path d="M265.138 158.707L140.097 190.748C137.943 191.32 135.66 191.292 133.535 190.633L33.6666 160.282C32.9056 160.053 32.3886 159.351 32.3886 158.563V33.4648C32.3886 32.7057 33.0061 32.1041 33.7528 32.1041H97.436C101.256 32.1041 104.989 33.2643 108.148 35.4271L131.884 51.7555C133.708 53.0159 136.12 53.0016 137.943 51.7555L161.55 35.4557C164.709 33.2786 168.457 32.1041 172.291 32.1041H232.054C232.815 32.1041 233.418 32.72 233.418 33.4648V115.336C233.418 115.966 232.987 116.511 232.384 116.654L139.351 138.84C137.8 139.227 136.163 139.184 134.641 138.711L50.151 112.214C49.2751 111.941 48.3705 112.6 48.3705 113.517V144.555C48.3705 145.157 48.7582 145.687 49.3326 145.859L127.504 169.778L128.107 169.993C132.903 171.583 138.03 171.812 142.955 170.666L244.432 146.303C256.68 143.324 265.21 132.495 265.21 119.891V27.578C265.21 12.553 253.004 0.378296 237.941 0.378296H172.276C161.967 0.378296 151.915 3.51507 143.443 9.35892L134.871 15.2744L126.183 9.30163C117.726 3.48642 107.689 0.378296 97.4217 0.378296H27.8511C12.7882 0.378296 0.582886 12.553 0.582886 27.578V163.104C0.582886 174.877 8.06406 185.204 19.2499 188.914L132.286 223.848C134.44 224.507 136.737 224.55 138.906 223.977L264.563 191.764C265.166 191.607 265.583 191.063 265.583 190.447V159.05C265.583 158.821 265.368 158.649 265.138 158.707Z" fill="#16B683"/>
</svg>
